<svg width="30" height="34" viewBox="0 0 30 34" fill="none" xmlns="http://www.w3.org/2000/svg">
<path d="M25.2579 9.1145C23.3226 9.1145 21.757 10.6832 21.757 12.6155C21.757 14.5507 23.3257 16.1164 25.2579 16.1164C27.1932 16.1164 28.7589 14.5477 28.7589 12.6155C28.7589 10.6802 27.1902 9.1145 25.2579 9.1145ZM25.4022 14.7701C24.3173 14.7701 23.1994 13.7844 23.1994 12.5373C23.1994 11.2902 24.4496 10.4878 25.4052 10.4878C26.3608 10.4878 27.4156 11.2902 27.4156 12.5373C27.4156 13.7844 26.487 14.7701 25.4022 14.7701Z" fill="#424242"/>
<path opacity="0.2" d="M25.2579 9.41501C27.0219 9.41501 28.4584 10.8515 28.4584 12.6155C28.4584 14.3795 27.0219 15.8159 25.2579 15.8159C23.4939 15.8159 22.0575 14.3795 22.0575 12.6155C22.0545 10.8515 23.4909 9.41501 25.2579 9.41501ZM25.4022 15.0706C26.6794 15.0706 27.7191 13.9347 27.7191 12.5373C27.7191 11.1309 26.5231 10.1873 25.4082 10.1873C24.3624 10.1873 22.9019 11.0798 22.9019 12.5373C22.8989 14.0309 24.2182 15.0706 25.4022 15.0706ZM25.2579 9.1145C23.3226 9.1145 21.757 10.6832 21.757 12.6155C21.757 14.5507 23.3257 16.1164 25.2579 16.1164C27.1932 16.1164 28.7589 14.5477 28.7589 12.6155C28.7589 10.6802 27.1902 9.1145 25.2579 9.1145ZM25.4022 14.7701C24.3173 14.7701 23.1994 13.7844 23.1994 12.5373C23.1994 11.2902 24.4496 10.4878 25.4052 10.4878C26.3608 10.4878 27.4156 11.2902 27.4156 12.5373C27.4156 13.7844 26.487 14.7701 25.4022 14.7701Z" fill="#EEEEEE"/>
<path d="M29.441 9.30084L26.7094 9.82373L26.2737 8.63972C25.8169 7.3956 25.1167 6.25065 24.2182 5.277L23.9147 4.94944C23.6532 4.66696 23.7223 4.21319 24.0559 4.02086L24.3594 3.84657C24.681 3.66325 25.0836 3.6903 25.3691 3.92169C26.8056 5.07566 28.0948 6.74349 28.8911 8.26107L29.441 9.30084Z" fill="#757575"/>
<path d="M15.876 20.4588C16.7024 20.4137 17.2824 19.9239 18.0487 19.8367C19.1305 19.7135 19.5362 20.8584 19.4731 21.769C19.3108 24.0469 17.9345 25.8109 18.7849 28.1789C19.8698 31.208 23.8365 32.1066 26.481 30.589C28.5696 29.3899 28.7048 27.3735 28.7108 25.2459C28.7198 22.3249 28.7288 19.407 28.7379 16.486C28.7439 14.2352 28.7529 11.9844 28.7589 9.73353C28.7649 8.28206 26.5111 8.28206 26.5051 9.73353C26.49 14.2562 26.475 18.7819 26.46 23.3046C26.457 24.5547 26.6042 27.0399 25.7598 28.1248C24.9123 29.2126 23.3767 29.2998 22.1927 28.7709C20.1643 27.8573 20.7563 25.5644 21.2732 23.8756C21.8471 22.0004 22.0365 19.8247 20.4137 18.3822C19.8247 17.8563 19.0494 17.5769 18.259 17.5769C17.3785 17.5739 16.6904 18.1659 15.873 18.2109C14.4335 18.2831 14.4245 20.5369 15.876 20.4588Z" fill="#757575"/>
<path opacity="0.2" d="M24.8162 4.32435C24.8643 4.32435 24.9334 4.33637 24.9965 4.38746C26.2827 5.42121 27.5388 6.97185 28.3622 8.53751L28.5365 8.86807C28.4073 8.91014 28.2931 8.99729 28.218 9.11449C28.1278 9.25273 28.1008 9.42101 28.1398 9.58329C28.1549 9.64039 28.1609 9.68546 28.1609 9.73354L28.1519 12.6275L28.1398 16.492L28.1098 25.2429C28.1038 27.3525 27.9565 29.0474 26.1805 30.0661C25.4473 30.4868 24.5788 30.7122 23.6712 30.7122C21.6428 30.7122 19.9449 29.6394 19.3499 27.9746C18.8751 26.6463 19.1936 25.5404 19.5602 24.2572C19.7796 23.4909 20.008 22.6976 20.0711 21.8111C20.1282 21.0087 19.8968 20.2454 19.4521 19.7676C19.1215 19.413 18.6918 19.2267 18.2049 19.2267C18.1328 19.2267 18.0577 19.2297 17.9796 19.2387C17.5408 19.2898 17.1592 19.443 16.8256 19.5783C16.48 19.7195 16.1825 19.8397 15.8429 19.8578H15.8009C15.4553 19.8578 15.3952 19.5783 15.3892 19.41C15.3862 19.3499 15.3892 18.83 15.906 18.803C16.459 18.7729 16.9398 18.6046 17.4056 18.4454C17.7301 18.3342 18.0367 18.226 18.3732 18.1599C18.4393 18.1478 18.5085 18.1418 18.5776 18.1418C19.0043 18.1418 19.5152 18.3853 20.011 18.827C21.162 19.8517 21.3874 21.4414 20.6962 23.6953C20.2544 25.1377 19.3319 28.1428 21.9433 29.3178C22.4812 29.5582 23.0702 29.6875 23.6472 29.6875C24.714 29.6875 25.6306 29.2637 26.2286 28.4944C27.0971 27.3795 27.076 25.2339 27.061 23.8155C27.058 23.6322 27.058 23.4609 27.058 23.3076L27.1031 9.73655C27.1031 9.68546 27.1121 9.63738 27.1301 9.57427C27.1662 9.45106 27.1602 9.32184 27.1151 9.20164L26.8326 8.43233C26.3458 7.10708 25.6125 5.90804 24.6539 4.86827L24.3504 4.54072L24.6539 4.36642C24.708 4.33938 24.7621 4.32435 24.8162 4.32435ZM24.8162 3.72333C24.6599 3.72333 24.5037 3.76239 24.3624 3.84353L24.0589 4.01783C23.7253 4.21016 23.6562 4.66393 23.9177 4.94641L24.2212 5.27396C25.1197 6.25062 25.8199 7.39257 26.2767 8.63668L26.5591 9.40599C26.5321 9.50516 26.5111 9.61334 26.5111 9.73054C26.496 14.2532 26.481 18.7789 26.466 23.3016C26.463 24.5517 26.6102 27.037 25.7658 28.1218C25.2429 28.7919 24.4586 29.0834 23.6592 29.0834C23.1604 29.0834 22.6555 28.9692 22.2017 28.7679C20.1733 27.8543 20.7653 25.5615 21.2822 23.8726C21.8562 21.9974 22.0455 19.8217 20.4227 18.3792C19.9149 17.9285 19.2567 17.5438 18.5896 17.5438C18.4814 17.5438 18.3762 17.5528 18.2681 17.5739C17.3846 17.7482 16.6994 18.1629 15.882 18.2079C14.4636 18.2831 14.4305 20.4648 15.8099 20.4648C15.8339 20.4648 15.858 20.4648 15.882 20.4618C16.7084 20.4167 17.2884 19.9269 18.0547 19.8397C18.1088 19.8337 18.1599 19.8307 18.211 19.8307C19.1756 19.8307 19.5392 20.9065 19.4791 21.772C19.3168 24.0499 17.9405 25.8139 18.7909 28.1819C19.5302 30.2404 21.5977 31.3162 23.6772 31.3162C24.6569 31.3162 25.6396 31.0788 26.484 30.592C28.5726 29.393 28.7078 27.3765 28.7138 25.2489C28.7228 22.328 28.7318 19.41 28.7409 16.489C28.7469 14.2382 28.7559 11.9874 28.7619 9.73655C28.7619 9.62837 28.7469 9.5322 28.7258 9.44205L29.4441 9.30381L28.8971 8.26104C28.1008 6.74346 26.8116 5.07563 25.3751 3.92166C25.2099 3.78944 25.0145 3.72333 24.8162 3.72333Z" fill="#424242"/>
<path d="M16.8526 33.0322H3.65121L2.41611 14.4606H18.1268L16.8526 33.0322Z" fill="#C62828"/>
<path d="M18.0667 16.8256H2.47621C1.14795 16.8256 0.0721226 15.7498 0.0721226 14.4215V2.41611C0.0721226 1.08785 1.14795 0.0120239 2.47621 0.0120239H18.0667C19.395 0.0120239 20.4708 1.08785 20.4708 2.41611V14.4185C20.4708 15.7468 19.395 16.8256 18.0667 16.8256Z" fill="url(#paint0_linear_4_62)"/>
<path d="M15.909 14.4185H4.63388C3.40779 14.4185 2.41611 13.4269 2.41611 12.2008V4.63391C2.41611 3.40782 3.40779 2.41614 4.63388 2.41614H15.912C17.1381 2.41614 18.1298 3.40782 18.1298 4.63391V12.2008C18.1268 13.4269 17.1351 14.4185 15.909 14.4185Z" fill="#81D4FA"/>
<path d="M11.3743 7.56386H5.37614C5.04558 7.56386 4.77512 7.2934 4.77512 6.96284V5.7638C4.77512 5.43324 5.04558 5.16278 5.37614 5.16278H11.3743C11.7049 5.16278 11.9754 5.43324 11.9754 5.7638V6.96284C11.9754 7.29641 11.7049 7.56386 11.3743 7.56386Z" fill="#455A64"/>
<path d="M15.1668 7.56386H14.5237C14.1931 7.56386 13.9227 7.2934 13.9227 6.96284V5.7638C13.9227 5.43324 14.1931 5.16278 14.5237 5.16278H15.1668C15.4973 5.16278 15.7678 5.43324 15.7678 5.7638V6.96284C15.7678 7.29641 15.5004 7.56386 15.1668 7.56386Z" fill="#455A64"/>
<path d="M11.3743 11.6719H5.37614C5.04558 11.6719 4.77512 11.4014 4.77512 11.0708V9.8718C4.77512 9.54124 5.04558 9.27078 5.37614 9.27078H11.3743C11.7049 9.27078 11.9754 9.54124 11.9754 9.8718V11.0708C11.9754 11.4044 11.7049 11.6719 11.3743 11.6719Z" fill="#455A64"/>
<path d="M15.1668 11.6719H14.5237C14.1931 11.6719 13.9227 11.4014 13.9227 11.0708V9.8718C13.9227 9.54124 14.1931 9.27078 14.5237 9.27078H15.1668C15.4973 9.27078 15.7678 9.54124 15.7678 9.8718V11.0708C15.7678 11.4044 15.5004 11.6719 15.1668 11.6719Z" fill="#455A64"/>
<path opacity="0.2" d="M18.0487 0.901533C18.8721 0.901533 19.5332 1.56566 19.5332 2.41611V14.4185C19.5332 15.266 18.8901 15.9271 18.0667 15.9271H17.9465C17.4717 15.9271 17.078 16.2937 17.048 16.7685L16.0082 32.1547H4.49564L3.48893 16.7685C3.45888 16.2937 3.06521 15.9271 2.5904 15.9271H2.47621C1.62276 15.9271 0.901533 15.2359 0.901533 14.4215V2.41611C0.901533 1.60773 1.63778 0.901533 2.47621 0.901533H18.0307M18.0667 0H2.47621C1.14795 0 0 1.08785 0 2.41611V14.4185C0 15.7468 1.14795 16.8286 2.47621 16.8286H2.5904L3.65421 33.0562H16.8526L17.9495 16.8286H18.0697C19.398 16.8286 20.4377 15.7468 20.4377 14.4215V2.41611C20.4347 1.08785 19.395 0 18.0667 0Z" fill="#424242"/>
<path d="M20.4528 33.6572H0.0510874V32.7076C0.0510874 31.9022 0.706201 31.2471 1.51157 31.2471H18.9292C19.7676 31.2471 20.4528 31.9323 20.4528 32.7707V33.6572Z" fill="#424242"/>
<path opacity="0.2" d="M18.9292 31.8481C19.437 31.8481 19.8517 32.2628 19.8517 32.7707V33.0562H0.652109V32.7076C0.652109 32.2328 1.03676 31.8481 1.51157 31.8481H18.9292ZM18.9292 31.2471H1.51157C0.706201 31.2471 0.0510874 31.9022 0.0510874 32.7076V33.6572H20.4498V32.7707C20.4528 31.9323 19.7676 31.2471 18.9292 31.2471Z" fill="#EEEEEE"/>
<path opacity="0.2" d="M15.909 3.01716C16.8016 3.01716 17.5258 3.74139 17.5258 4.63391V12.2008C17.5258 13.0933 16.8016 13.8175 15.909 13.8175H4.63388C3.74136 13.8175 3.01713 13.0933 3.01713 12.2008V4.63391C3.01713 3.74139 3.74136 3.01716 4.63388 3.01716H15.909ZM15.909 2.41614H4.63388C3.40779 2.41614 2.41611 3.40782 2.41611 4.63391V12.2008C2.41611 13.4269 3.40779 14.4185 4.63388 14.4185H15.912C17.1381 14.4185 18.1298 13.4269 18.1298 12.2008V4.63391C18.1268 3.41083 17.1351 2.41614 15.909 2.41614Z" fill="#424242"/>
<path d="M29.0624 16.9278H26.1955C25.6787 16.9278 25.2579 16.5071 25.2579 15.9902V9.418C25.2579 8.90112 25.6787 8.48041 26.1955 8.48041H29.0624C29.5793 8.48041 30 8.90112 30 9.418V15.9872C30 16.5071 29.5793 16.9278 29.0624 16.9278Z" fill="#BDBDBD"/>
<path opacity="0.2" d="M29.0624 9.08143C29.2487 9.08143 29.399 9.23168 29.399 9.418V15.9872C29.399 16.1735 29.2487 16.3237 29.0624 16.3237H26.1955C26.0092 16.3237 25.859 16.1735 25.859 15.9872V9.418C25.859 9.23168 26.0092 9.08143 26.1955 9.08143H29.0624ZM29.0624 8.48041H26.1955C25.6787 8.48041 25.2579 8.90112 25.2579 9.418V15.9872C25.2579 16.504 25.6787 16.9248 26.1955 16.9248H29.0624C29.5793 16.9248 30 16.504 30 15.9872V9.418C30 8.90112 29.5793 8.48041 29.0624 8.48041Z" fill="#424242"/>
<defs>
<linearGradient id="paint0_linear_4_62" x1="10.2715" y1="0.0123244" x2="10.2715" y2="16.8244" gradientUnits="userSpaceOnUse">
<stop offset="0.2463" stop-color="#F44336"/>
<stop offset="0.9246" stop-color="#D32F2F"/>
</linearGradient>
</defs>
</svg>
