<svg width="24" height="13" viewBox="0 0 24 13" fill="none" xmlns="http://www.w3.org/2000/svg">
<path fill-rule="evenodd" clip-rule="evenodd" d="M1.26562 2.01893C0.974609 2.07362 0.625 1.3119 0.900391 1.1869C5.24023 -1.31115 5.67773 0.757214 9.97461 1.74549L10.0293 1.5912C10.166 1.21229 10.1602 1.32948 10.5938 1.45057L10.8027 1.50917C11.5176 1.70839 11.2012 1.65174 11.7793 1.2826C13.084 0.450573 15.0586 0.643932 16.377 1.49354C17.5195 2.22987 17.6074 2.84706 17.8789 4.04237C18.1289 5.13807 21.6992 8.35682 24 10.5092L22.9141 11.6381L21.4043 10.0658L19.8574 11.767C19.4395 12.226 19.166 12.7142 18.4785 12.6654C18.0137 12.6322 16.8027 11.9349 16.3301 11.7006L14.3516 10.7182C13.9961 10.3803 13.8281 9.94081 13.8633 9.38807C13.3457 9.45448 12.9004 9.33143 12.5215 9.0287C11.1582 7.94081 11.8711 7.20838 11.6816 6.01698C11.668 5.93495 11.6523 5.85096 11.6309 5.76893C11.3223 4.51893 10.6387 4.12245 9.64062 3.66542C9.32422 3.52089 9.35742 3.59706 9.47852 3.26893L9.52734 3.13612C5.79102 2.16542 4.98438 0.237682 1.26562 2.01893ZM0.789062 1.98378C0.986328 2.85682 1.57812 3.29237 1.57812 3.72792C1.57812 4.16346 1.38086 4.60096 0.789062 4.60096C0.197266 4.60096 0 4.16542 0 3.72792C0 3.29237 0.591797 2.85682 0.789062 1.98378ZM15.209 8.13612C15.2793 7.9037 15.25 7.64003 15.0332 7.43104L15.8711 6.72987C16.1973 6.49745 16.5625 6.39003 16.9746 6.44081C18.0996 6.57948 19.7832 8.52089 20.6504 9.31776L18.9727 11.2162C17.9941 9.80799 16.8887 7.9662 15.209 8.13612ZM14.8906 9.07167C14.9863 9.00331 15.0996 8.97206 15.2324 8.97792L16.043 10.4857C15.6445 10.3568 14.0332 9.69081 14.8906 9.07167ZM15.9238 8.82167C16.5059 9.10682 17.3477 10.1107 18.1777 11.1771C18.332 11.3021 18.1582 11.6674 17.7695 11.3666L17.2598 11.0951C16.3164 10.5619 16.209 10.058 15.9238 8.82167Z" fill="#4F4F4F"/>
</svg>
