<svg width="366" height="61" viewBox="0 0 366 61" fill="none" xmlns="http://www.w3.org/2000/svg">
<g filter="url(#filter0_d_104_482)">
<rect x="21.4357" y="11.75" width="339.814" height="40.5" rx="3.25" fill="#FAE0D1" stroke="#AEAEAE" stroke-width="1.5"/>
<path d="M133.795 39C134.523 38.9947 135.219 38.7108 135.731 38.2103C136.243 37.7099 136.528 37.0338 136.526 36.33V29.67C136.528 28.9662 136.243 28.2901 135.731 27.7897C135.219 27.2892 134.523 27.0053 133.795 27M133.795 39V38.75H133.794M133.795 39H133.156H132.906M133.795 39L133.793 38.75C133.794 38.75 133.794 38.75 133.794 38.75M133.794 38.75C134.458 38.7449 135.092 38.4857 135.556 38.0316C136.02 37.5775 136.278 36.9658 136.276 36.331L136.276 36.33L136.276 29.67V29.669C136.278 29.0342 136.02 28.4225 135.556 27.9684C135.092 27.5143 134.458 27.2551 133.794 27.25M133.794 38.75H132.906H132.656V39C132.656 39.4614 132.466 39.9056 132.126 40.2345C131.786 40.5636 131.322 40.75 130.837 40.75H121.529C121.044 40.75 120.58 40.5636 120.24 40.2345C119.899 39.9056 119.71 39.4614 119.71 39V38.75H119.46H118.571M133.794 27.25H133.795V27M133.794 27.25C133.794 27.25 133.794 27.25 133.793 27.25L133.795 27M133.794 27.25H132.389H132.139V27V25V24.9889L132.139 24.989C132.158 24.5502 131.997 24.1203 131.688 23.7937C131.38 23.4681 130.95 23.2718 130.49 23.25M133.795 27H132.639H132.389V26.75V25C132.411 24.4923 132.224 23.9967 131.87 23.6219C131.515 23.247 131.021 23.0234 130.496 23M130.49 23.25H130.496V23M130.49 23.25H121.876M130.49 23.25C130.488 23.2499 130.487 23.2498 130.485 23.2498L130.496 23M130.496 23H121.87M132.906 39L118.571 27M132.906 39C132.906 39.5304 132.688 40.0391 132.3 40.4142C131.912 40.7893 131.386 41 130.837 41H121.529C120.98 41 120.454 40.7893 120.066 40.4142C119.678 40.0391 119.46 39.5304 119.46 39H119.21M132.906 39H119.21M118.571 38.75C117.907 38.7449 117.274 38.4857 116.81 38.0316C116.345 37.5775 116.088 36.9658 116.09 36.331V36.33L116.09 29.67L116.09 29.669C116.088 29.0342 116.345 28.4225 116.81 27.9684C117.274 27.5143 117.907 27.2551 118.571 27.25M118.571 38.75H118.571V39M118.571 38.75C118.572 38.75 118.572 38.75 118.572 38.75L118.571 39M118.571 27.25H119.977H120.227V27V25H120.227L120.227 24.989C120.208 24.5502 120.369 24.1203 120.678 23.7937C120.986 23.4681 121.416 23.2718 121.876 23.25M118.571 27.25C118.572 27.25 118.572 27.25 118.572 27.25L118.571 27M118.571 27.25H118.571V27M121.876 23.25C121.877 23.2499 121.879 23.2498 121.881 23.2498L121.87 23M121.876 23.25H121.87V23M121.87 23C121.345 23.0234 120.851 23.247 120.496 23.6219C120.141 23.9967 119.955 24.4923 119.977 25V26.75V27H119.727H118.571M118.571 39H119.21M118.571 39C117.843 38.9947 117.147 38.7108 116.635 38.2103C116.123 37.7099 115.837 37.0338 115.84 36.33L119.21 39M122.046 24.75H121.796V25V27V27.25H122.046H130.32H130.57V27V25V24.75H130.32H122.046ZM121.279 39V39.25H121.529H130.837H131.087V39V35V34.75H130.837H121.529H121.279V35V39ZM133.795 37.25V37.2501L133.803 37.2499C134.045 37.2428 134.276 37.1439 134.446 36.9719C134.616 36.8001 134.71 36.5691 134.707 36.3281V29.6719C134.71 29.4309 134.616 29.1999 134.446 29.0281C134.276 28.8561 134.045 28.7572 133.803 28.7501L133.803 28.75H133.795H118.571V28.7499L118.563 28.7501C118.321 28.7572 118.09 28.8561 117.92 29.0281C117.75 29.1999 117.655 29.4309 117.659 29.6719V36.3281C117.655 36.5691 117.75 36.8001 117.92 36.9719C118.09 37.1439 118.321 37.2428 118.563 37.2499L118.563 37.25H118.571H119.46H119.71V37V35C119.71 34.5386 119.899 34.0944 120.24 33.7655C120.58 33.4364 121.044 33.25 121.529 33.25H130.837C131.322 33.25 131.786 33.4364 132.126 33.7655C132.466 34.0944 132.656 34.5386 132.656 35V37V37.25H132.906H133.795Z" fill="#231F20" stroke="#4F4F4F" stroke-width="0.5"/>
</g>
<defs>
<filter id="filter0_d_104_482" x="16.6857" y="11" width="349.314" height="50" filterUnits="userSpaceOnUse" color-interpolation-filters="sRGB">
<feFlood flood-opacity="0" result="BackgroundImageFix"/>
<feColorMatrix in="SourceAlpha" type="matrix" values="0 0 0 0 0 0 0 0 0 0 0 0 0 0 0 0 0 0 127 0" result="hardAlpha"/>
<feOffset dy="4"/>
<feGaussianBlur stdDeviation="2"/>
<feComposite in2="hardAlpha" operator="out"/>
<feColorMatrix type="matrix" values="0 0 0 0 0 0 0 0 0 0 0 0 0 0 0 0 0 0 0.25 0"/>
<feBlend mode="normal" in2="BackgroundImageFix" result="effect1_dropShadow_104_482"/>
<feBlend mode="normal" in="SourceGraphic" in2="effect1_dropShadow_104_482" result="shape"/>
</filter>
</defs>
</svg>
