<svg width="24" height="24" viewBox="0 0 24 24" fill="none" xmlns="http://www.w3.org/2000/svg">
<path d="M20.832 21.3333C21.6765 21.3263 22.484 20.9477 23.0778 20.2804C23.6716 19.6132 24.0032 18.7117 24 17.7733V8.89333C24.0032 7.95499 23.6716 7.05349 23.0778 6.38624C22.484 5.71899 21.6765 5.34038 20.832 5.33333M20.832 21.3333V21.0833H20.831M20.832 21.3333H20.05H19.8M20.832 21.3333L20.8299 21.0833C20.8303 21.0833 20.8306 21.0833 20.831 21.0833M20.831 21.0833C21.6 21.0766 22.3414 20.7319 22.891 20.1142C23.4417 19.4955 23.753 18.6544 23.75 17.7742L23.75 17.7733L23.75 8.89333V8.89248C23.753 8.01231 23.4417 7.1712 22.891 6.55243C22.3414 5.93478 21.5999 5.59005 20.8309 5.58333M20.831 21.0833H19.8H19.55V21.3333C19.55 21.9823 19.3177 22.6 18.9112 23.0517C18.5055 23.5025 17.9612 23.75 17.4 23.75H6.60001C6.0388 23.75 5.49451 23.5025 5.08878 23.0517C4.68227 22.6 4.45001 21.9823 4.45001 21.3333V21.0833H4.20001H3.16899M20.8309 5.58333H20.832V5.33333M20.8309 5.58333C20.8306 5.58333 20.8302 5.58333 20.8299 5.58332L20.832 5.33333M20.8309 5.58333H19.2H18.95V5.33333V2.66667V2.65705L18.9502 2.65705C18.974 2.03831 18.7757 1.43827 18.4049 0.988074C18.0363 0.540418 17.5294 0.279005 16.9974 0.25M20.832 5.33333H19.45H19.2V5.08333V2.66667C19.226 1.98977 19.0095 1.329 18.5979 0.829151C18.1863 0.329302 17.6131 0.03114 17.004 0M16.9974 0.25H17.004V0M16.9974 0.25H7.0026M16.9974 0.25C16.9953 0.249888 16.9933 0.249779 16.9912 0.249674L17.004 0M17.004 0H6.99601M19.8 21.3333L3.16802 5.33333M19.8 21.3333C19.8 22.0406 19.5471 22.7189 19.097 23.219C18.647 23.719 18.0365 24 17.4 24H6.60001C5.96349 24 5.35304 23.719 4.90296 23.219C4.45287 22.7189 4.20001 22.0406 4.20001 21.3333H3.95001M19.8 21.3333H3.95001M3.16899 21.0833C2.4 21.0766 1.65857 20.7319 1.10896 20.1142C0.558322 19.4955 0.247021 18.6544 0.250023 17.7742V17.7733L0.250024 8.89333L0.250021 8.89248C0.247021 8.01231 0.558322 7.1712 1.10896 6.55243C1.65859 5.93478 2.40007 5.59005 3.1691 5.58333M3.16899 21.0833H3.16802V21.3333M3.16899 21.0833C3.16936 21.0833 3.16973 21.0833 3.1701 21.0833L3.16802 21.3333M3.1691 5.58333H4.80001H5.05001V5.33333V2.66667H5.0502L5.04983 2.65705C5.02602 2.03831 5.22434 1.43827 5.59508 0.988074C5.96372 0.540418 6.47061 0.279005 7.0026 0.25M3.1691 5.58333C3.16943 5.58333 3.16977 5.58333 3.1701 5.58332L3.16802 5.33333M3.1691 5.58333H3.16802V5.33333M7.0026 0.25C7.00466 0.249888 7.00672 0.249779 7.00877 0.249674L6.99601 0M7.0026 0.25H6.99601V0M6.99601 0C6.38689 0.03114 5.81372 0.329302 5.4021 0.829151C4.99047 1.329 4.77396 1.98977 4.80001 2.66667V5.08333V5.33333H4.55001H3.16802M3.16802 21.3333H3.95001M3.16802 21.3333C2.32353 21.3263 1.51597 20.9477 0.922198 20.2804C0.328422 19.6132 -0.00317575 18.7117 2.29282e-05 17.7733L3.95001 21.3333M7.20001 2.41667H6.95001V2.66667V5.33333V5.58333H7.20001H16.8H17.05V5.33333V2.66667V2.41667H16.8H7.20001ZM6.35001 21.3333V21.5833H6.60001H17.4H17.65V21.3333V16V15.75H17.4H6.60001H6.35001V16V21.3333ZM20.832 18.9167V18.9168L20.8404 18.9165C21.1228 18.9071 21.3841 18.7745 21.5704 18.5579C21.7555 18.3425 21.8536 18.0599 21.85 17.7717V8.89498C21.8536 8.60672 21.7555 8.32414 21.5704 8.10878C21.3841 7.89214 21.1228 7.75961 20.8404 7.75014L20.8404 7.75H20.832H3.16802V7.74986L3.15963 7.75014C2.87724 7.75961 2.61589 7.89214 2.42964 8.10878C2.24449 8.32415 2.1464 8.60673 2.15002 8.895V17.7717C2.1464 18.0599 2.24449 18.3425 2.42964 18.5579C2.61589 18.7745 2.87724 18.9071 3.15963 18.9165L3.15963 18.9167H3.16802H4.20001H4.45001V18.6667V16C4.45001 15.3511 4.68227 14.7333 5.08878 14.2816C5.49451 13.8308 6.03881 13.5833 6.60001 13.5833H17.4C17.9612 13.5833 18.5055 13.8308 18.9112 14.2816C19.3177 14.7333 19.55 15.3511 19.55 16V18.6667V18.9167H19.8H20.832Z" fill="#231F20" stroke="#4F4F4F" stroke-width="0.5"/>
</svg>
